<?xml version="1.0" encoding="UTF-8"?>
<!-- Generator: Adobe Illustrator 16.0.0, SVG Export Plug-In . SVG Version: 6.00 Build 0)  --><svg xmlns="http://www.w3.org/2000/svg" xmlns:xlink="http://www.w3.org/1999/xlink" version="1.1" id="Layer_1" x="0px" y="0px" width="1500px" height="1039.34px" viewBox="-1580 230.33 1500 1039.34" enable-background="new -1580 230.33 1500 1039.34" xml:space="preserve">
<rect x="-1580" y="230.33" fill="#F1F1F1" width="1500" height="1039.34" />
<g>
	<ellipse fill="#E7E7E9" cx="-1096.678" cy="666.815" rx="48.921" ry="48.921" />
	<path fill="#E7E7E9" d="M-494.975,912.754V809.771c0-5.14-1.713-11.041-3.427-15.99l-3.426-5.139   c-0.762-1.714-2.475-3.427-3.427-4.188l-198.351-198.54c-7.614-7.614-20.177-7.614-27.792,0l-426.205,339.403   c3.427,2.475,6.662,4.188,11.041,4.188h634.645C-502.589,929.505-494.975,921.891-494.975,912.754z" />
	<path fill="#DDDDDF" d="M-1065.66,696.51l-223.287,224.239c-3.236,3.426-0.952,8.946,3.807,9.137l460.279,0.571l-212.817-233.947   C-1045.292,688.896-1058.046,688.896-1065.66,696.51z" />
	<path fill="#DDDDDF" d="M-715.406,580.013l86.992,349.492h254.125c4.568,0,7.043-5.521,3.616-8.946l-286.484-289.15l-47.208-47.208   C-706.84,582.487-711.028,580.774-715.406,580.013z" />
</g>
</svg>
