<?xml version="1.0" encoding="UTF-8"?>
<!-- Generator: Adobe Illustrator 17.1.0, SVG Export Plug-In . SVG Version: 6.00 Build 0)  --><svg xmlns="http://www.w3.org/2000/svg" xmlns:xlink="http://www.w3.org/1999/xlink" version="1.1" id="Layer_1" x="0px" y="0px" viewBox="0 0 788 546" style="enable-background:new 0 0 788 546;" xml:space="preserve">
<style type="text/css">
	.st0{fill:#F1F1F1;}
	.st1{fill:#E7E7E9;}
	.st2{fill:#DDDDDF;}
</style>
<rect x="0" y="0" class="st0" width="788" height="546" />
<g>
	<path class="st1" d="M570,358.5v-54.1c0-2.7-0.9-5.8-1.8-8.4l-1.8-2.7c-0.4-0.9-1.3-1.8-1.8-2.2L460.4,186.8c-4-4-10.6-4-14.6,0   L221.9,365.1c1.8,1.3,3.5,2.2,5.8,2.2h333.4C566,367.3,570,363.3,570,358.5z" />
	<path class="st2" d="M270.2,244.9L152.9,362.7c-1.7,1.8-0.5,4.7,2,4.8l241.8,0.3L284.9,244.9C280.9,240.9,274.2,240.9,270.2,244.9z   " />
	<ellipse class="st1" cx="324.3" cy="177.9" rx="25.7" ry="25.7" />
	<path class="st2" d="M454.2,183.7l45.7,183.6h133.5c2.4,0,3.7-2.9,1.9-4.7L484.8,210.7L460,185.9   C458.7,185,456.5,184.1,454.2,183.7z" />
</g>
</svg>
