<?xml version="1.0" encoding="UTF-8"?>
<!-- Generator: Adobe Illustrator 16.0.0, SVG Export Plug-In . SVG Version: 6.00 Build 0)  --><svg xmlns="http://www.w3.org/2000/svg" xmlns:xlink="http://www.w3.org/1999/xlink" version="1.1" id="Layer_1" x="0px" y="0px" width="1500px" height="1039.34px" viewBox="0 230.33 1500 1039.34" enable-background="new 0 230.33 1500 1039.34" xml:space="preserve">
<rect y="230.33" fill="#F1F1F1" width="1500" height="1039.34" />
<g>
	<path fill="#E7E7E9" d="M1085.025,912.754V809.771c0-5.14-1.713-11.041-3.427-15.99l-3.426-5.139   c-0.762-1.714-2.475-3.427-3.427-4.188l-198.351-198.54c-7.614-7.614-20.177-7.614-27.792,0L422.398,925.317   c3.427,2.475,6.662,4.188,11.041,4.188h634.645C1077.411,929.505,1085.025,921.891,1085.025,912.754z" />
	<path fill="#DDDDDF" d="M514.34,696.51L291.053,920.749c-3.235,3.426-0.951,8.946,3.808,9.137l460.279,0.571L542.322,696.51   C534.708,688.896,521.954,688.896,514.34,696.51z" />
	<ellipse fill="#E7E7E9" cx="617.322" cy="568.972" rx="48.921" ry="48.921" />
	<path fill="#DDDDDF" d="M864.594,580.013l86.992,349.492h254.125c4.568,0,7.043-5.521,3.616-8.946l-286.484-289.15L875.635,584.2   C873.16,582.487,868.972,580.774,864.594,580.013z" />
</g>
</svg>
