<?xml version="1.0" encoding="UTF-8"?>
<!-- Generator: Adobe Illustrator 17.1.0, SVG Export Plug-In . SVG Version: 6.00 Build 0)  --><svg xmlns="http://www.w3.org/2000/svg" xmlns:xlink="http://www.w3.org/1999/xlink" version="1.1" id="Layer_1" x="0px" y="0px" viewBox="0 0 49 70" enable-background="new 0 0 49 70" xml:space="preserve">
<g>
	<path opacity="5.000000e-02" d="M49,70H2.9C1.3,70,0,68.7,0,67.2L0,2.8C0,1.3,1.3,0,2.9,0L49,0V70z" />
	<path fill="#FFFFFF" d="M22,49.5c-0.2,0-0.4-0.1-0.6-0.2c-0.5-0.3-0.6-0.9-0.3-1.4L29.8,35l-8.6-12.9c-0.3-0.5-0.2-1.1,0.3-1.4   c0.5-0.3,1.1-0.2,1.4,0.3l9,13.5c0.2,0.3,0.2,0.8,0,1.1l-9,13.5C22.7,49.3,22.4,49.5,22,49.5z" />
</g>
</svg>
