<?xml version="1.0" encoding="UTF-8"?>
<!-- Generator: Adobe Illustrator 17.1.0, SVG Export Plug-In . SVG Version: 6.00 Build 0)  --><svg xmlns="http://www.w3.org/2000/svg" xmlns:xlink="http://www.w3.org/1999/xlink" version="1.1" id="Layer_1" x="0px" y="0px" viewBox="0 0 49 70" enable-background="new 0 0 49 70" xml:space="preserve">
<g>
	<path opacity="5.000000e-02" d="M0,70h46.1c1.6,0,2.9-1.3,2.9-2.8V2.8C49,1.3,47.7,0,46.1,0L0,0L0,70z" />
	<path fill="#FFFFFF" d="M27,49.5c0.2,0,0.4-0.1,0.6-0.2c0.5-0.3,0.6-0.9,0.3-1.4L19.2,35l8.6-12.9c0.3-0.5,0.2-1.1-0.3-1.4   c-0.5-0.3-1.1-0.2-1.4,0.3l-9,13.5c-0.2,0.3-0.2,0.8,0,1.1l9,13.5C26.3,49.3,26.6,49.5,27,49.5z" />
</g>
</svg>
